<svg width="5" height="2" viewBox="0 0 5 2" fill="none" xmlns="http://www.w3.org/2000/svg">
<path d="M2.26225 0.355469C1.32993 0.355469 0.492809 0.763452 0.182037 1.37264C0.162808 1.40924 0.151094 1.44931 0.147596 1.49049C0.144097 1.53167 0.148879 1.57313 0.161659 1.61244C0.17444 1.65175 0.194958 1.68811 0.222015 1.71939C0.249073 1.75068 0.282125 1.77625 0.319222 1.7946C0.363633 1.8165 0.412477 1.82797 0.462012 1.82813C0.519895 1.82828 0.576687 1.81243 0.626102 1.78235C0.675518 1.75226 0.715629 1.70911 0.741987 1.65767C0.946368 1.26086 1.58191 0.98142 2.26225 0.98142C2.94259 0.98142 3.57813 1.26086 3.78531 1.65767C3.80399 1.69443 3.82976 1.72716 3.86114 1.75395C3.89252 1.78074 3.9289 1.80108 3.96818 1.81381C4.00746 1.82653 4.04888 1.83139 4.09005 1.82809C4.13121 1.8248 4.17132 1.81341 4.20807 1.7946C4.28212 1.75585 4.33798 1.68963 4.36364 1.6102C4.38929 1.53077 4.38269 1.44447 4.34526 1.36984C4.02889 0.76345 3.19176 0.355469 2.26225 0.355469Z" fill="white"/>
</svg>
